<mxfile host="Electron" modified="2023-05-19T03:41:19.152Z" agent="Mozilla/5.0 (Windows NT 10.0; Win64; x64) AppleWebKit/537.36 (KHTML, like Gecko) draw.io/21.2.8 Chrome/112.0.5615.165 Electron/24.2.0 Safari/537.36" etag="_HFkMmFYCEUuGyZgut1t" version="21.2.8" type="device">
  <diagram name="Page-1" id="-CargAOVByAoLxOXnS4A">
    <mxGraphModel dx="1436" dy="1856" grid="0" gridSize="10" guides="1" tooltips="1" connect="1" arrows="1" fold="1" page="0" pageScale="1" pageWidth="850" pageHeight="1100" math="0" shadow="0">
      <root>
        <mxCell id="0" />
        <mxCell id="1" parent="0" />
        <mxCell id="wgH91Bwnna8UG3z6ClUc-1" value="" style="rounded=0;whiteSpace=wrap;html=1;fontSize=16;" parent="1" vertex="1">
          <mxGeometry x="-143" y="-993" width="714" height="581" as="geometry" />
        </mxCell>
        <mxCell id="wgH91Bwnna8UG3z6ClUc-2" value="Microcontroller Abstraction Layer (MCAL)" style="rounded=1;whiteSpace=wrap;html=1;fontSize=16;fillColor=#dae8fc;strokeColor=#6c8ebf;" parent="1" vertex="1">
          <mxGeometry x="45" y="-648" width="485" height="100" as="geometry" />
        </mxCell>
        <mxCell id="wgH91Bwnna8UG3z6ClUc-8" value="Hardware Abstraction Layer (HAL)" style="rounded=1;whiteSpace=wrap;html=1;fontSize=16;fillColor=#ffe6cc;strokeColor=#d79b00;" parent="1" vertex="1">
          <mxGeometry x="45" y="-762" width="485" height="100" as="geometry" />
        </mxCell>
        <mxCell id="wgH91Bwnna8UG3z6ClUc-13" value="Application Layer" style="rounded=1;whiteSpace=wrap;html=1;fontSize=16;fillColor=#d5e8d4;strokeColor=#82b366;" parent="1" vertex="1">
          <mxGeometry x="45" y="-875" width="485" height="98" as="geometry" />
        </mxCell>
        <mxCell id="wgH91Bwnna8UG3z6ClUc-14" value="Library" style="rounded=1;whiteSpace=wrap;html=1;fontSize=16;fillColor=#f5f5f5;fontColor=#333333;strokeColor=#666666;" parent="1" vertex="1">
          <mxGeometry x="-72" y="-875" width="95" height="400" as="geometry" />
        </mxCell>
        <mxCell id="wgH91Bwnna8UG3z6ClUc-15" value="&lt;font style=&quot;font-size: 18px;&quot;&gt;Layered Architecture&lt;/font&gt;" style="text;html=1;strokeColor=none;fillColor=none;align=center;verticalAlign=middle;whiteSpace=wrap;rounded=0;fontSize=16;" parent="1" vertex="1">
          <mxGeometry x="86" y="-961" width="250" height="30" as="geometry" />
        </mxCell>
        <mxCell id="wgH91Bwnna8UG3z6ClUc-16" value="Microcontroller" style="rounded=0;whiteSpace=wrap;html=1;fontSize=16;fillColor=#fad9d5;strokeColor=#ae4132;" parent="1" vertex="1">
          <mxGeometry x="45" y="-535" width="485" height="60" as="geometry" />
        </mxCell>
      </root>
    </mxGraphModel>
  </diagram>
</mxfile>
